<svg aria-roledescription="er" role="graphics-document document" viewBox="-111.94010162353516 0 483.2526550292969 554" style="max-width: 483.253px; background-color: white;" xmlns:xlink="http://www.w3.org/1999/xlink" xmlns="http://www.w3.org/2000/svg" width="100%" id="my-svg"><style>#my-svg{font-family:"trebuchet ms",verdana,arial,sans-serif;font-size:16px;fill:#000000;}#my-svg .error-icon{fill:#552222;}#my-svg .error-text{fill:#552222;stroke:#552222;}#my-svg .edge-thickness-normal{stroke-width:2px;}#my-svg .edge-thickness-thick{stroke-width:3.5px;}#my-svg .edge-pattern-solid{stroke-dasharray:0;}#my-svg .edge-pattern-dashed{stroke-dasharray:3;}#my-svg .edge-pattern-dotted{stroke-dasharray:2;}#my-svg .marker{fill:#000000;stroke:#000000;}#my-svg .marker.cross{stroke:#000000;}#my-svg svg{font-family:"trebuchet ms",verdana,arial,sans-serif;font-size:16px;}#my-svg .entityBox{fill:#cde498;stroke:#13540c;}#my-svg .attributeBoxOdd{fill:#ffffff;stroke:#13540c;}#my-svg .attributeBoxEven{fill:#f2f2f2;stroke:#13540c;}#my-svg .relationshipLabelBox{fill:hsl(78.1578947368, 58.4615384615%, 84.5098039216%);opacity:0.7;background-color:hsl(78.1578947368, 58.4615384615%, 84.5098039216%);}#my-svg .relationshipLabelBox rect{opacity:0.5;}#my-svg .relationshipLine{stroke:#000000;}#my-svg .entityTitleText{text-anchor:middle;font-size:18px;fill:#000000;}#my-svg #MD_PARENT_START{fill:#f5f5f5!important;stroke:#000000!important;stroke-width:1;}#my-svg #MD_PARENT_END{fill:#f5f5f5!important;stroke:#000000!important;stroke-width:1;}#my-svg :root{--mermaid-font-family:"trebuchet ms",verdana,arial,sans-serif;}</style><g/><defs><marker orient="auto" markerHeight="240" markerWidth="190" refY="7" refX="0" id="MD_PARENT_START"><path d="M 18,7 L9,13 L1,7 L9,1 Z"/></marker></defs><defs><marker orient="auto" markerHeight="28" markerWidth="20" refY="7" refX="19" id="MD_PARENT_END"><path d="M 18,7 L9,13 L1,7 L9,1 Z"/></marker></defs><defs><marker orient="auto" markerHeight="18" markerWidth="18" refY="9" refX="0" id="ONLY_ONE_START"><path d="M9,0 L9,18 M15,0 L15,18" fill="none" stroke="gray"/></marker></defs><defs><marker orient="auto" markerHeight="18" markerWidth="18" refY="9" refX="18" id="ONLY_ONE_END"><path d="M3,0 L3,18 M9,0 L9,18" fill="none" stroke="gray"/></marker></defs><defs><marker orient="auto" markerHeight="18" markerWidth="30" refY="9" refX="0" id="ZERO_OR_ONE_START"><circle r="6" cy="9" cx="21" fill="white" stroke="gray"/><path d="M9,0 L9,18" fill="none" stroke="gray"/></marker></defs><defs><marker orient="auto" markerHeight="18" markerWidth="30" refY="9" refX="30" id="ZERO_OR_ONE_END"><circle r="6" cy="9" cx="9" fill="white" stroke="gray"/><path d="M21,0 L21,18" fill="none" stroke="gray"/></marker></defs><defs><marker orient="auto" markerHeight="36" markerWidth="45" refY="18" refX="18" id="ONE_OR_MORE_START"><path d="M0,18 Q 18,0 36,18 Q 18,36 0,18 M42,9 L42,27" fill="none" stroke="gray"/></marker></defs><defs><marker orient="auto" markerHeight="36" markerWidth="45" refY="18" refX="27" id="ONE_OR_MORE_END"><path d="M3,9 L3,27 M9,18 Q27,0 45,18 Q27,36 9,18" fill="none" stroke="gray"/></marker></defs><defs><marker orient="auto" markerHeight="36" markerWidth="57" refY="18" refX="18" id="ZERO_OR_MORE_START"><circle r="6" cy="18" cx="48" fill="white" stroke="gray"/><path d="M0,18 Q18,0 36,18 Q18,36 0,18" fill="none" stroke="gray"/></marker></defs><defs><marker orient="auto" markerHeight="36" markerWidth="57" refY="18" refX="39" id="ZERO_OR_MORE_END"><circle r="6" cy="18" cx="9" fill="white" stroke="gray"/><path d="M21,18 Q39,0 57,18 Q39,36 21,18" fill="none" stroke="gray"/></marker></defs><path style="stroke: gray; fill: none;" marker-start="url(#ZERO_OR_MORE_START)" marker-end="url(#ZERO_OR_MORE_END)" d="M79.05103356889683,198L76.0534316504316,206.33333333333334C73.05582973196637,214.66666666666666,67.06062589503593,231.33333333333334,68.4489888888514,248C69.83735188266688,264.6666666666667,78.60928170722828,281.3333333333333,82.99524661950898,289.6666666666667L87.38121153178967,298" class="er relationshipLine"/><path style="stroke: gray; fill: none;" marker-start="url(#ZERO_OR_MORE_START)" marker-end="url(#ZERO_OR_MORE_END)" d="M21.664016723632812,172.55353677700145L3.975465774536133,185.12794731416787C-13.713085174560547,197.7023578513343,-49.090187072753906,222.85117892566714,-66.77873802185059,251.2589227961669C-84.46728897094727,279.6666666666667,-84.46728897094727,311.3333333333333,-84.46728897094727,343C-84.46728897094727,374.6666666666667,-84.46728897094727,406.3333333333333,-44.28971862792969,432.24331065378647C-4.112148284912109,458.1532879742395,76.24299240112305,478.30657594847906,116.42056274414062,488.38321993559885L156.5981330871582,498.45986392271857" class="er relationshipLine"/><path style="stroke: gray; fill: none;" marker-start="url(#ZERO_OR_ONE_START)" marker-end="url(#ONLY_ONE_END)" d="M134.74963258442125,298L139.13559749670196,289.6666666666667C143.52156240898265,281.3333333333333,152.29349223354407,264.6666666666667,153.68185522735953,248C155.070218221175,231.33333333333334,149.07501438424455,214.66666666666666,146.07741246577933,206.33333333333334L143.0798105473141,198" class="er relationshipLine"/><path style="stroke: gray; fill: none;" marker-start="url(#ZERO_OR_MORE_START)" marker-end="url(#ZERO_OR_MORE_END)" d="M111.06542205810547,388L111.06542205810547,396.3333333333333C111.06542205810547,404.6666666666667,111.06542205810547,421.3333333333333,121.97098267786036,438C132.87654329761523,454.6666666666667,154.687664537125,471.3333333333333,165.59322515687987,479.6666666666667L176.49878577663475,488" class="er relationshipLine"/><path style="stroke: gray; fill: none;" marker-start="url(#ZERO_OR_ONE_START)" marker-end="url(#ONLY_ONE_END)" d="M238.1049824022267,488L249.52050751638194,479.6666666666667C260.9360326305372,471.3333333333333,283.7670828588477,454.6666666666667,295.1826079730029,430.5C306.5981330871582,406.3333333333333,306.5981330871582,374.6666666666667,306.5981330871582,343C306.5981330871582,311.3333333333333,306.5981330871582,279.6666666666667,288.9095821380615,251.2589227961669C271.22103118896484,222.85117892566714,235.84392929077148,197.7023578513343,218.1553783416748,185.12794731416787L200.46682739257812,172.55353677700145" class="er relationshipLine"/><path style="stroke: gray; fill: none;" marker-start="url(#ZERO_OR_ONE_START)" marker-end="url(#ONLY_ONE_END)" d="M256.5981330871582,492.75L281.5981330871582,483.625C306.5981330871582,474.5,356.5981330871582,456.25,347.5202515920003,436.1705485256868C338.44237009684247,416.0910970513735,270.2866071065267,394.18219410274696,236.2087256113688,383.22774262843376L202.13084411621094,372.2732911541205" class="er relationshipLine"/><g transform="translate(21.664016723632812,20 )" id="entity-Vechicle-47307303-4fd1-5343-896e-db44e2474b48"><rect height="178" width="178.8028106689453" y="0" x="0" class="er entityBox"/><text style="dominant-baseline: middle; text-anchor: middle; font-size: 12px;" transform="translate(89.40140533447266,12)" y="0" x="0" id="text-entity-Vechicle-47307303-4fd1-5343-896e-db44e2474b48" class="er entityLabel">Vechicle</text><rect height="22" width="54.095550537109375" y="24" x="0" class="er attributeBoxOdd"/><text style="dominant-baseline: middle; font-size: 10.2px;" transform="translate(5,35)" y="0" x="0" id="text-entity-Vechicle-47307303-4fd1-5343-896e-db44e2474b48-attr-1-type" class="er entityLabel">String</text><rect height="22" width="100.69163513183594" y="24" x="54.095550537109375" class="er attributeBoxOdd"/><text style="dominant-baseline: middle; font-size: 10.2px;" transform="translate(59.095550537109375,35)" y="0" x="0" id="text-entity-Vechicle-47307303-4fd1-5343-896e-db44e2474b48-attr-1-name" class="er entityLabel">id</text><rect height="22" width="24.015625" y="24" x="154.7871856689453" class="er attributeBoxOdd"/><text style="dominant-baseline: middle; font-size: 10.2px;" transform="translate(159.7871856689453,35)" y="0" x="0" id="text-entity-Vechicle-47307303-4fd1-5343-896e-db44e2474b48-attr-1-comment" class="er entityLabel">🗝️</text><rect height="22" width="54.095550537109375" y="46" x="0" class="er attributeBoxEven"/><text style="dominant-baseline: middle; font-size: 10.2px;" transform="translate(5,57)" y="0" x="0" id="text-entity-Vechicle-47307303-4fd1-5343-896e-db44e2474b48-attr-2-type" class="er entityLabel">String</text><rect height="22" width="100.69163513183594" y="46" x="54.095550537109375" class="er attributeBoxEven"/><text style="dominant-baseline: middle; font-size: 10.2px;" transform="translate(59.095550537109375,57)" y="0" x="0" id="text-entity-Vechicle-47307303-4fd1-5343-896e-db44e2474b48-attr-2-name" class="er entityLabel">vechicleType</text><rect height="22" width="24.015625" y="46" x="154.7871856689453" class="er attributeBoxEven"/><text style="dominant-baseline: middle; font-size: 10.2px;" transform="translate(159.7871856689453,57)" y="0" x="0" id="text-entity-Vechicle-47307303-4fd1-5343-896e-db44e2474b48-attr-2-comment" class="er entityLabel"/><rect height="22" width="54.095550537109375" y="68" x="0" class="er attributeBoxOdd"/><text style="dominant-baseline: middle; font-size: 10.2px;" transform="translate(5,79)" y="0" x="0" id="text-entity-Vechicle-47307303-4fd1-5343-896e-db44e2474b48-attr-3-type" class="er entityLabel">String</text><rect height="22" width="100.69163513183594" y="68" x="54.095550537109375" class="er attributeBoxOdd"/><text style="dominant-baseline: middle; font-size: 10.2px;" transform="translate(59.095550537109375,79)" y="0" x="0" id="text-entity-Vechicle-47307303-4fd1-5343-896e-db44e2474b48-attr-3-name" class="er entityLabel">vechicleDescription</text><rect height="22" width="24.015625" y="68" x="154.7871856689453" class="er attributeBoxOdd"/><text style="dominant-baseline: middle; font-size: 10.2px;" transform="translate(159.7871856689453,79)" y="0" x="0" id="text-entity-Vechicle-47307303-4fd1-5343-896e-db44e2474b48-attr-3-comment" class="er entityLabel"/><rect height="22" width="54.095550537109375" y="90" x="0" class="er attributeBoxEven"/><text style="dominant-baseline: middle; font-size: 10.2px;" transform="translate(5,101)" y="0" x="0" id="text-entity-Vechicle-47307303-4fd1-5343-896e-db44e2474b48-attr-4-type" class="er entityLabel">String</text><rect height="22" width="100.69163513183594" y="90" x="54.095550537109375" class="er attributeBoxEven"/><text style="dominant-baseline: middle; font-size: 10.2px;" transform="translate(59.095550537109375,101)" y="0" x="0" id="text-entity-Vechicle-47307303-4fd1-5343-896e-db44e2474b48-attr-4-name" class="er entityLabel">routeFrom</text><rect height="22" width="24.015625" y="90" x="154.7871856689453" class="er attributeBoxEven"/><text style="dominant-baseline: middle; font-size: 10.2px;" transform="translate(159.7871856689453,101)" y="0" x="0" id="text-entity-Vechicle-47307303-4fd1-5343-896e-db44e2474b48-attr-4-comment" class="er entityLabel"/><rect height="22" width="54.095550537109375" y="112" x="0" class="er attributeBoxOdd"/><text style="dominant-baseline: middle; font-size: 10.2px;" transform="translate(5,123)" y="0" x="0" id="text-entity-Vechicle-47307303-4fd1-5343-896e-db44e2474b48-attr-5-type" class="er entityLabel">String</text><rect height="22" width="100.69163513183594" y="112" x="54.095550537109375" class="er attributeBoxOdd"/><text style="dominant-baseline: middle; font-size: 10.2px;" transform="translate(59.095550537109375,123)" y="0" x="0" id="text-entity-Vechicle-47307303-4fd1-5343-896e-db44e2474b48-attr-5-name" class="er entityLabel">routeTo</text><rect height="22" width="24.015625" y="112" x="154.7871856689453" class="er attributeBoxOdd"/><text style="dominant-baseline: middle; font-size: 10.2px;" transform="translate(159.7871856689453,123)" y="0" x="0" id="text-entity-Vechicle-47307303-4fd1-5343-896e-db44e2474b48-attr-5-comment" class="er entityLabel"/><rect height="22" width="54.095550537109375" y="134" x="0" class="er attributeBoxEven"/><text style="dominant-baseline: middle; font-size: 10.2px;" transform="translate(5,145)" y="0" x="0" id="text-entity-Vechicle-47307303-4fd1-5343-896e-db44e2474b48-attr-6-type" class="er entityLabel">DateTime</text><rect height="22" width="100.69163513183594" y="134" x="54.095550537109375" class="er attributeBoxEven"/><text style="dominant-baseline: middle; font-size: 10.2px;" transform="translate(59.095550537109375,145)" y="0" x="0" id="text-entity-Vechicle-47307303-4fd1-5343-896e-db44e2474b48-attr-6-name" class="er entityLabel">Departure</text><rect height="22" width="24.015625" y="134" x="154.7871856689453" class="er attributeBoxEven"/><text style="dominant-baseline: middle; font-size: 10.2px;" transform="translate(159.7871856689453,145)" y="0" x="0" id="text-entity-Vechicle-47307303-4fd1-5343-896e-db44e2474b48-attr-6-comment" class="er entityLabel"/><rect height="22" width="54.095550537109375" y="156" x="0" class="er attributeBoxOdd"/><text style="dominant-baseline: middle; font-size: 10.2px;" transform="translate(5,167)" y="0" x="0" id="text-entity-Vechicle-47307303-4fd1-5343-896e-db44e2474b48-attr-7-type" class="er entityLabel">Int</text><rect height="22" width="100.69163513183594" y="156" x="54.095550537109375" class="er attributeBoxOdd"/><text style="dominant-baseline: middle; font-size: 10.2px;" transform="translate(59.095550537109375,167)" y="0" x="0" id="text-entity-Vechicle-47307303-4fd1-5343-896e-db44e2474b48-attr-7-name" class="er entityLabel">totalSeats</text><rect height="22" width="24.015625" y="156" x="154.7871856689453" class="er attributeBoxOdd"/><text style="dominant-baseline: middle; font-size: 10.2px;" transform="translate(159.7871856689453,167)" y="0" x="0" id="text-entity-Vechicle-47307303-4fd1-5343-896e-db44e2474b48-attr-7-comment" class="er entityLabel"/></g><g transform="translate(20,298 )" id="entity-Booking-794ee50b-c6f0-55d6-a188-7dccf3366d85"><rect height="90" width="182.13084411621094" y="0" x="0" class="er entityBox"/><text style="dominant-baseline: middle; text-anchor: middle; font-size: 12px;" transform="translate(91.06542205810547,12)" y="0" x="0" id="text-entity-Booking-794ee50b-c6f0-55d6-a188-7dccf3366d85" class="er entityLabel">Booking</text><rect height="22" width="54.095550537109375" y="24" x="0" class="er attributeBoxOdd"/><text style="dominant-baseline: middle; font-size: 10.2px;" transform="translate(5,35)" y="0" x="0" id="text-entity-Booking-794ee50b-c6f0-55d6-a188-7dccf3366d85-attr-1-type" class="er entityLabel">String</text><rect height="22" width="104.01966857910156" y="24" x="54.095550537109375" class="er attributeBoxOdd"/><text style="dominant-baseline: middle; font-size: 10.2px;" transform="translate(59.095550537109375,35)" y="0" x="0" id="text-entity-Booking-794ee50b-c6f0-55d6-a188-7dccf3366d85-attr-1-name" class="er entityLabel">bookingReferenceNo</text><rect height="22" width="24.015625" y="24" x="158.11521911621094" class="er attributeBoxOdd"/><text style="dominant-baseline: middle; font-size: 10.2px;" transform="translate(163.11521911621094,35)" y="0" x="0" id="text-entity-Booking-794ee50b-c6f0-55d6-a188-7dccf3366d85-attr-1-comment" class="er entityLabel">🗝️</text><rect height="22" width="54.095550537109375" y="46" x="0" class="er attributeBoxEven"/><text style="dominant-baseline: middle; font-size: 10.2px;" transform="translate(5,57)" y="0" x="0" id="text-entity-Booking-794ee50b-c6f0-55d6-a188-7dccf3366d85-attr-2-type" class="er entityLabel">String</text><rect height="22" width="104.01966857910156" y="46" x="54.095550537109375" class="er attributeBoxEven"/><text style="dominant-baseline: middle; font-size: 10.2px;" transform="translate(59.095550537109375,57)" y="0" x="0" id="text-entity-Booking-794ee50b-c6f0-55d6-a188-7dccf3366d85-attr-2-name" class="er entityLabel">bookerId</text><rect height="22" width="24.015625" y="46" x="158.11521911621094" class="er attributeBoxEven"/><text style="dominant-baseline: middle; font-size: 10.2px;" transform="translate(163.11521911621094,57)" y="0" x="0" id="text-entity-Booking-794ee50b-c6f0-55d6-a188-7dccf3366d85-attr-2-comment" class="er entityLabel"/><rect height="22" width="54.095550537109375" y="68" x="0" class="er attributeBoxOdd"/><text style="dominant-baseline: middle; font-size: 10.2px;" transform="translate(5,79)" y="0" x="0" id="text-entity-Booking-794ee50b-c6f0-55d6-a188-7dccf3366d85-attr-3-type" class="er entityLabel">DateTime</text><rect height="22" width="104.01966857910156" y="68" x="54.095550537109375" class="er attributeBoxOdd"/><text style="dominant-baseline: middle; font-size: 10.2px;" transform="translate(59.095550537109375,79)" y="0" x="0" id="text-entity-Booking-794ee50b-c6f0-55d6-a188-7dccf3366d85-attr-3-name" class="er entityLabel">bookedAt</text><rect height="22" width="24.015625" y="68" x="158.11521911621094" class="er attributeBoxOdd"/><text style="dominant-baseline: middle; font-size: 10.2px;" transform="translate(163.11521911621094,79)" y="0" x="0" id="text-entity-Booking-794ee50b-c6f0-55d6-a188-7dccf3366d85-attr-3-comment" class="er entityLabel"/></g><g transform="translate(156.5981330871582,488 )" id="entity-Seat-03afb89a-02f8-512d-afc5-0d4f75025a99"><rect height="46" width="100" y="0" x="0" class="er entityBox"/><text style="dominant-baseline: middle; text-anchor: middle; font-size: 12px;" transform="translate(50,12)" y="0" x="0" id="text-entity-Seat-03afb89a-02f8-512d-afc5-0d4f75025a99" class="er entityLabel">Seat</text><rect height="22" width="37.61418151855469" y="24" x="0" class="er attributeBoxOdd"/><text style="dominant-baseline: middle; font-size: 10.2px;" transform="translate(5,35)" y="0" x="0" id="text-entity-Seat-03afb89a-02f8-512d-afc5-0d4f75025a99-attr-1-type" class="er entityLabel">String</text><rect height="22" width="38.152069091796875" y="24" x="37.61418151855469" class="er attributeBoxOdd"/><text style="dominant-baseline: middle; font-size: 10.2px;" transform="translate(42.61418151855469,35)" y="0" x="0" id="text-entity-Seat-03afb89a-02f8-512d-afc5-0d4f75025a99-attr-1-name" class="er entityLabel">seatId</text><rect height="22" width="24.233749389648438" y="24" x="75.76625061035156" class="er attributeBoxOdd"/><text style="dominant-baseline: middle; font-size: 10.2px;" transform="translate(80.76625061035156,35)" y="0" x="0" id="text-entity-Seat-03afb89a-02f8-512d-afc5-0d4f75025a99-attr-1-comment" class="er entityLabel">🗝️</text></g><rect height="14" width="46.619140625" y="242.14630126953125" x="45.24646759033203" class="er relationshipLabelBox"/><text style="text-anchor: middle; dominant-baseline: middle; font-size: 12px;" y="249.14630126953125" x="68.55603790283203" id="rel1" class="er relationshipLabel">bookings</text><rect height="14" width="27.46484375" y="386.2210998535156" x="-91.94010162353516" class="er relationshipLabelBox"/><text style="text-anchor: middle; dominant-baseline: middle; font-size: 12px;" y="393.2210998535156" x="-78.20767974853516" id="rel2" class="er relationshipLabel">seats</text><rect height="14" width="45.822265625" y="242.14630126953125" x="130.66363525390625" class="er relationshipLabelBox"/><text style="text-anchor: middle; dominant-baseline: middle; font-size: 12px;" y="249.14630126953125" x="153.57476806640625" id="rel3" class="er relationshipLabel">vechicle</text><rect height="14" width="27.46484375" y="439.8406066894531" x="114.96536254882812" class="er relationshipLabelBox"/><text style="text-anchor: middle; dominant-baseline: middle; font-size: 12px;" y="446.8406066894531" x="128.69778442382812" id="rel4" class="er relationshipLabel">seats</text><rect height="14" width="45.822265625" y="314.4851379394531" x="283.479736328125" class="er relationshipLabelBox"/><text style="text-anchor: middle; dominant-baseline: middle; font-size: 12px;" y="321.4851379394531" x="306.390869140625" id="rel5" class="er relationshipLabel">vechicle</text><rect height="14" width="41.625" y="413.6069641113281" x="309.68756103515625" class="er relationshipLabelBox"/><text style="text-anchor: middle; dominant-baseline: middle; font-size: 12px;" y="420.6069641113281" x="330.50006103515625" id="rel6" class="er relationshipLabel">booking</text></svg>