<svg aria-roledescription="er" role="graphics-document document" viewBox="-117.30711364746094 0 477.82891845703125 554" style="max-width: 477.829px; background-color: white;" xmlns:xlink="http://www.w3.org/1999/xlink" xmlns="http://www.w3.org/2000/svg" width="100%" id="my-svg"><style>#my-svg{font-family:"trebuchet ms",verdana,arial,sans-serif;font-size:16px;fill:#000000;}#my-svg .error-icon{fill:#552222;}#my-svg .error-text{fill:#552222;stroke:#552222;}#my-svg .edge-thickness-normal{stroke-width:2px;}#my-svg .edge-thickness-thick{stroke-width:3.5px;}#my-svg .edge-pattern-solid{stroke-dasharray:0;}#my-svg .edge-pattern-dashed{stroke-dasharray:3;}#my-svg .edge-pattern-dotted{stroke-dasharray:2;}#my-svg .marker{fill:#000000;stroke:#000000;}#my-svg .marker.cross{stroke:#000000;}#my-svg svg{font-family:"trebuchet ms",verdana,arial,sans-serif;font-size:16px;}#my-svg .entityBox{fill:#cde498;stroke:#13540c;}#my-svg .attributeBoxOdd{fill:#ffffff;stroke:#13540c;}#my-svg .attributeBoxEven{fill:#f2f2f2;stroke:#13540c;}#my-svg .relationshipLabelBox{fill:hsl(78.1578947368, 58.4615384615%, 84.5098039216%);opacity:0.7;background-color:hsl(78.1578947368, 58.4615384615%, 84.5098039216%);}#my-svg .relationshipLabelBox rect{opacity:0.5;}#my-svg .relationshipLine{stroke:#000000;}#my-svg .entityTitleText{text-anchor:middle;font-size:18px;fill:#000000;}#my-svg #MD_PARENT_START{fill:#f5f5f5!important;stroke:#000000!important;stroke-width:1;}#my-svg #MD_PARENT_END{fill:#f5f5f5!important;stroke:#000000!important;stroke-width:1;}#my-svg :root{--mermaid-font-family:"trebuchet ms",verdana,arial,sans-serif;}</style><g/><defs><marker orient="auto" markerHeight="240" markerWidth="190" refY="7" refX="0" id="MD_PARENT_START"><path d="M 18,7 L9,13 L1,7 L9,1 Z"/></marker></defs><defs><marker orient="auto" markerHeight="28" markerWidth="20" refY="7" refX="19" id="MD_PARENT_END"><path d="M 18,7 L9,13 L1,7 L9,1 Z"/></marker></defs><defs><marker orient="auto" markerHeight="18" markerWidth="18" refY="9" refX="0" id="ONLY_ONE_START"><path d="M9,0 L9,18 M15,0 L15,18" fill="none" stroke="gray"/></marker></defs><defs><marker orient="auto" markerHeight="18" markerWidth="18" refY="9" refX="18" id="ONLY_ONE_END"><path d="M3,0 L3,18 M9,0 L9,18" fill="none" stroke="gray"/></marker></defs><defs><marker orient="auto" markerHeight="18" markerWidth="30" refY="9" refX="0" id="ZERO_OR_ONE_START"><circle r="6" cy="9" cx="21" fill="white" stroke="gray"/><path d="M9,0 L9,18" fill="none" stroke="gray"/></marker></defs><defs><marker orient="auto" markerHeight="18" markerWidth="30" refY="9" refX="30" id="ZERO_OR_ONE_END"><circle r="6" cy="9" cx="9" fill="white" stroke="gray"/><path d="M21,0 L21,18" fill="none" stroke="gray"/></marker></defs><defs><marker orient="auto" markerHeight="36" markerWidth="45" refY="18" refX="18" id="ONE_OR_MORE_START"><path d="M0,18 Q 18,0 36,18 Q 18,36 0,18 M42,9 L42,27" fill="none" stroke="gray"/></marker></defs><defs><marker orient="auto" markerHeight="36" markerWidth="45" refY="18" refX="27" id="ONE_OR_MORE_END"><path d="M3,9 L3,27 M9,18 Q27,0 45,18 Q27,36 9,18" fill="none" stroke="gray"/></marker></defs><defs><marker orient="auto" markerHeight="36" markerWidth="57" refY="18" refX="18" id="ZERO_OR_MORE_START"><circle r="6" cy="18" cx="48" fill="white" stroke="gray"/><path d="M0,18 Q18,0 36,18 Q18,36 0,18" fill="none" stroke="gray"/></marker></defs><defs><marker orient="auto" markerHeight="36" markerWidth="57" refY="18" refX="39" id="ZERO_OR_MORE_END"><circle r="6" cy="18" cx="9" fill="white" stroke="gray"/><path d="M21,18 Q39,0 57,18 Q39,36 21,18" fill="none" stroke="gray"/></marker></defs><path style="stroke: gray; fill: none;" marker-start="url(#ZERO_OR_MORE_START)" marker-end="url(#ZERO_OR_MORE_END)" d="M73.01471765092808,198L70.01711573246286,206.33333333333334C67.01951381399762,214.66666666666666,61.02430997706717,231.33333333333334,62.41267297088265,248C63.80103596469812,264.6666666666667,72.57296578925953,281.3333333333333,76.95893070154023,289.6666666666667L81.34489561382092,298" class="er relationshipLine"/><path style="stroke: gray; fill: none;" marker-start="url(#ZERO_OR_MORE_START)" marker-end="url(#ZERO_OR_MORE_END)" d="M25.336013793945312,166.5402724597597L6.532437006632487,180.11689371646642C-12.271139780680338,193.69351497317314,-49.87829335530599,220.8467574865866,-68.68187014261882,250.25671207662663C-87.48544692993164,279.6666666666667,-87.48544692993164,311.3333333333333,-87.48544692993164,343C-87.48544692993164,374.6666666666667,-87.48544692993164,406.3333333333333,-48.31392923990885,432.1990483770656C-9.142411549886068,458.0647634207979,69.2006238301595,478.1295268415957,108.3721415201823,488.16190855199466L147.54365921020508,498.19429026239357" class="er relationshipLine"/><path style="stroke: gray; fill: none;" marker-start="url(#ZERO_OR_ONE_START)" marker-end="url(#ONLY_ONE_END)" d="M128.7133166664525,298L133.0992815787332,289.6666666666667C137.4852464910139,281.3333333333333,146.25717631557532,264.6666666666667,147.64553930939078,248C149.03390230320625,231.33333333333334,143.0386984662758,214.66666666666666,140.04109654781058,206.33333333333334L137.04349462934536,198" class="er relationshipLine"/><path style="stroke: gray; fill: none;" marker-start="url(#ZERO_OR_MORE_START)" marker-end="url(#ZERO_OR_MORE_END)" d="M105.02910614013672,388L105.02910614013672,396.3333333333333C105.02910614013672,404.6666666666667,105.02910614013672,421.3333333333333,115.59012818009886,438C126.15115022006098,454.6666666666667,147.27319429998528,471.3333333333333,157.8342163399474,479.6666666666667L168.39523837990956,488" class="er relationshipLine"/><path style="stroke: gray; fill: none;" marker-start="url(#ZERO_OR_ONE_START)" marker-end="url(#ONLY_ONE_END)" d="M229.05050852527359,488L240.46603363942882,479.6666666666667C251.88155875358407,471.3333333333333,274.71260898189456,454.6666666666667,286.1281340960498,430.5C297.5436592102051,406.3333333333333,297.5436592102051,374.6666666666667,297.5436592102051,343C297.5436592102051,311.3333333333333,297.5436592102051,279.6666666666667,278.74008242289227,250.25671207662663C259.9365056355794,220.8467574865866,222.32935206095377,193.69351497317314,203.52577527364096,180.11689371646642L184.72219848632812,166.5402724597597" class="er relationshipLine"/><path style="stroke: gray; fill: none;" marker-start="url(#ZERO_OR_ONE_START)" marker-end="url(#ONLY_ONE_END)" d="M247.54365921020508,492.75L272.5436592102051,483.625C297.5436592102051,474.5,347.5436592102051,456.25,337.9627513885498,435.894152821363C328.38184356689453,415.5383056427259,259.220027923584,393.07661128545186,224.6391201019287,381.84576410681484L190.05821228027344,370.61491692817776" class="er relationshipLine"/><g transform="translate(25.336013793945312,20 )" id="entity-Vechicle-47307303-4fd1-5343-896e-db44e2474b48"><rect height="178" width="159.3861846923828" y="0" x="0" class="er entityBox"/><text style="dominant-baseline: middle; text-anchor: middle; font-size: 12px;" transform="translate(79.6930923461914,12)" y="0" x="0" id="text-entity-Vechicle-47307303-4fd1-5343-896e-db44e2474b48" class="er entityLabel">Vechicle</text><rect height="22" width="54.095550537109375" y="24" x="0" class="er attributeBoxOdd"/><text style="dominant-baseline: middle; font-size: 10.2px;" transform="translate(5,35)" y="0" x="0" id="text-entity-Vechicle-47307303-4fd1-5343-896e-db44e2474b48-attr-1-type" class="er entityLabel">String</text><rect height="22" width="81.27500915527344" y="24" x="54.095550537109375" class="er attributeBoxOdd"/><text style="dominant-baseline: middle; font-size: 10.2px;" transform="translate(59.095550537109375,35)" y="0" x="0" id="text-entity-Vechicle-47307303-4fd1-5343-896e-db44e2474b48-attr-1-name" class="er entityLabel">id</text><rect height="22" width="24.015625" y="24" x="135.3705596923828" class="er attributeBoxOdd"/><text style="dominant-baseline: middle; font-size: 10.2px;" transform="translate(140.3705596923828,35)" y="0" x="0" id="text-entity-Vechicle-47307303-4fd1-5343-896e-db44e2474b48-attr-1-comment" class="er entityLabel">🗝️</text><rect height="22" width="54.095550537109375" y="46" x="0" class="er attributeBoxEven"/><text style="dominant-baseline: middle; font-size: 10.2px;" transform="translate(5,57)" y="0" x="0" id="text-entity-Vechicle-47307303-4fd1-5343-896e-db44e2474b48-attr-2-type" class="er entityLabel">String</text><rect height="22" width="81.27500915527344" y="46" x="54.095550537109375" class="er attributeBoxEven"/><text style="dominant-baseline: middle; font-size: 10.2px;" transform="translate(59.095550537109375,57)" y="0" x="0" id="text-entity-Vechicle-47307303-4fd1-5343-896e-db44e2474b48-attr-2-name" class="er entityLabel">routeFrom</text><rect height="22" width="24.015625" y="46" x="135.3705596923828" class="er attributeBoxEven"/><text style="dominant-baseline: middle; font-size: 10.2px;" transform="translate(140.3705596923828,57)" y="0" x="0" id="text-entity-Vechicle-47307303-4fd1-5343-896e-db44e2474b48-attr-2-comment" class="er entityLabel"/><rect height="22" width="54.095550537109375" y="68" x="0" class="er attributeBoxOdd"/><text style="dominant-baseline: middle; font-size: 10.2px;" transform="translate(5,79)" y="0" x="0" id="text-entity-Vechicle-47307303-4fd1-5343-896e-db44e2474b48-attr-3-type" class="er entityLabel">String</text><rect height="22" width="81.27500915527344" y="68" x="54.095550537109375" class="er attributeBoxOdd"/><text style="dominant-baseline: middle; font-size: 10.2px;" transform="translate(59.095550537109375,79)" y="0" x="0" id="text-entity-Vechicle-47307303-4fd1-5343-896e-db44e2474b48-attr-3-name" class="er entityLabel">routeTo</text><rect height="22" width="24.015625" y="68" x="135.3705596923828" class="er attributeBoxOdd"/><text style="dominant-baseline: middle; font-size: 10.2px;" transform="translate(140.3705596923828,79)" y="0" x="0" id="text-entity-Vechicle-47307303-4fd1-5343-896e-db44e2474b48-attr-3-comment" class="er entityLabel"/><rect height="22" width="54.095550537109375" y="90" x="0" class="er attributeBoxEven"/><text style="dominant-baseline: middle; font-size: 10.2px;" transform="translate(5,101)" y="0" x="0" id="text-entity-Vechicle-47307303-4fd1-5343-896e-db44e2474b48-attr-4-type" class="er entityLabel">DateTime</text><rect height="22" width="81.27500915527344" y="90" x="54.095550537109375" class="er attributeBoxEven"/><text style="dominant-baseline: middle; font-size: 10.2px;" transform="translate(59.095550537109375,101)" y="0" x="0" id="text-entity-Vechicle-47307303-4fd1-5343-896e-db44e2474b48-attr-4-name" class="er entityLabel">Departure</text><rect height="22" width="24.015625" y="90" x="135.3705596923828" class="er attributeBoxEven"/><text style="dominant-baseline: middle; font-size: 10.2px;" transform="translate(140.3705596923828,101)" y="0" x="0" id="text-entity-Vechicle-47307303-4fd1-5343-896e-db44e2474b48-attr-4-comment" class="er entityLabel"/><rect height="22" width="54.095550537109375" y="112" x="0" class="er attributeBoxOdd"/><text style="dominant-baseline: middle; font-size: 10.2px;" transform="translate(5,123)" y="0" x="0" id="text-entity-Vechicle-47307303-4fd1-5343-896e-db44e2474b48-attr-5-type" class="er entityLabel">String</text><rect height="22" width="81.27500915527344" y="112" x="54.095550537109375" class="er attributeBoxOdd"/><text style="dominant-baseline: middle; font-size: 10.2px;" transform="translate(59.095550537109375,123)" y="0" x="0" id="text-entity-Vechicle-47307303-4fd1-5343-896e-db44e2474b48-attr-5-name" class="er entityLabel">vechicleType</text><rect height="22" width="24.015625" y="112" x="135.3705596923828" class="er attributeBoxOdd"/><text style="dominant-baseline: middle; font-size: 10.2px;" transform="translate(140.3705596923828,123)" y="0" x="0" id="text-entity-Vechicle-47307303-4fd1-5343-896e-db44e2474b48-attr-5-comment" class="er entityLabel"/><rect height="22" width="54.095550537109375" y="134" x="0" class="er attributeBoxEven"/><text style="dominant-baseline: middle; font-size: 10.2px;" transform="translate(5,145)" y="0" x="0" id="text-entity-Vechicle-47307303-4fd1-5343-896e-db44e2474b48-attr-6-type" class="er entityLabel">Int</text><rect height="22" width="81.27500915527344" y="134" x="54.095550537109375" class="er attributeBoxEven"/><text style="dominant-baseline: middle; font-size: 10.2px;" transform="translate(59.095550537109375,145)" y="0" x="0" id="text-entity-Vechicle-47307303-4fd1-5343-896e-db44e2474b48-attr-6-name" class="er entityLabel">NumberOfSeats</text><rect height="22" width="24.015625" y="134" x="135.3705596923828" class="er attributeBoxEven"/><text style="dominant-baseline: middle; font-size: 10.2px;" transform="translate(140.3705596923828,145)" y="0" x="0" id="text-entity-Vechicle-47307303-4fd1-5343-896e-db44e2474b48-attr-6-comment" class="er entityLabel"/><rect height="22" width="54.095550537109375" y="156" x="0" class="er attributeBoxOdd"/><text style="dominant-baseline: middle; font-size: 10.2px;" transform="translate(5,167)" y="0" x="0" id="text-entity-Vechicle-47307303-4fd1-5343-896e-db44e2474b48-attr-7-type" class="er entityLabel">Int</text><rect height="22" width="81.27500915527344" y="156" x="54.095550537109375" class="er attributeBoxOdd"/><text style="dominant-baseline: middle; font-size: 10.2px;" transform="translate(59.095550537109375,167)" y="0" x="0" id="text-entity-Vechicle-47307303-4fd1-5343-896e-db44e2474b48-attr-7-name" class="er entityLabel">totalSeats</text><rect height="22" width="24.015625" y="156" x="135.3705596923828" class="er attributeBoxOdd"/><text style="dominant-baseline: middle; font-size: 10.2px;" transform="translate(140.3705596923828,167)" y="0" x="0" id="text-entity-Vechicle-47307303-4fd1-5343-896e-db44e2474b48-attr-7-comment" class="er entityLabel"/></g><g transform="translate(20,298 )" id="entity-Booking-794ee50b-c6f0-55d6-a188-7dccf3366d85"><rect height="90" width="170.05821228027344" y="0" x="0" class="er entityBox"/><text style="dominant-baseline: middle; text-anchor: middle; font-size: 12px;" transform="translate(85.02910614013672,12)" y="0" x="0" id="text-entity-Booking-794ee50b-c6f0-55d6-a188-7dccf3366d85" class="er entityLabel">Booking</text><rect height="22" width="54.095550537109375" y="24" x="0" class="er attributeBoxOdd"/><text style="dominant-baseline: middle; font-size: 10.2px;" transform="translate(5,35)" y="0" x="0" id="text-entity-Booking-794ee50b-c6f0-55d6-a188-7dccf3366d85-attr-1-type" class="er entityLabel">String</text><rect height="22" width="91.94703674316406" y="24" x="54.095550537109375" class="er attributeBoxOdd"/><text style="dominant-baseline: middle; font-size: 10.2px;" transform="translate(59.095550537109375,35)" y="0" x="0" id="text-entity-Booking-794ee50b-c6f0-55d6-a188-7dccf3366d85-attr-1-name" class="er entityLabel">bookingReference</text><rect height="22" width="24.015625" y="24" x="146.04258728027344" class="er attributeBoxOdd"/><text style="dominant-baseline: middle; font-size: 10.2px;" transform="translate(151.04258728027344,35)" y="0" x="0" id="text-entity-Booking-794ee50b-c6f0-55d6-a188-7dccf3366d85-attr-1-comment" class="er entityLabel">🗝️</text><rect height="22" width="54.095550537109375" y="46" x="0" class="er attributeBoxEven"/><text style="dominant-baseline: middle; font-size: 10.2px;" transform="translate(5,57)" y="0" x="0" id="text-entity-Booking-794ee50b-c6f0-55d6-a188-7dccf3366d85-attr-2-type" class="er entityLabel">String</text><rect height="22" width="91.94703674316406" y="46" x="54.095550537109375" class="er attributeBoxEven"/><text style="dominant-baseline: middle; font-size: 10.2px;" transform="translate(59.095550537109375,57)" y="0" x="0" id="text-entity-Booking-794ee50b-c6f0-55d6-a188-7dccf3366d85-attr-2-name" class="er entityLabel">bookerId</text><rect height="22" width="24.015625" y="46" x="146.04258728027344" class="er attributeBoxEven"/><text style="dominant-baseline: middle; font-size: 10.2px;" transform="translate(151.04258728027344,57)" y="0" x="0" id="text-entity-Booking-794ee50b-c6f0-55d6-a188-7dccf3366d85-attr-2-comment" class="er entityLabel"/><rect height="22" width="54.095550537109375" y="68" x="0" class="er attributeBoxOdd"/><text style="dominant-baseline: middle; font-size: 10.2px;" transform="translate(5,79)" y="0" x="0" id="text-entity-Booking-794ee50b-c6f0-55d6-a188-7dccf3366d85-attr-3-type" class="er entityLabel">DateTime</text><rect height="22" width="91.94703674316406" y="68" x="54.095550537109375" class="er attributeBoxOdd"/><text style="dominant-baseline: middle; font-size: 10.2px;" transform="translate(59.095550537109375,79)" y="0" x="0" id="text-entity-Booking-794ee50b-c6f0-55d6-a188-7dccf3366d85-attr-3-name" class="er entityLabel">bookedAt</text><rect height="22" width="24.015625" y="68" x="146.04258728027344" class="er attributeBoxOdd"/><text style="dominant-baseline: middle; font-size: 10.2px;" transform="translate(151.04258728027344,79)" y="0" x="0" id="text-entity-Booking-794ee50b-c6f0-55d6-a188-7dccf3366d85-attr-3-comment" class="er entityLabel"/></g><g transform="translate(147.54365921020508,488 )" id="entity-Seat-03afb89a-02f8-512d-afc5-0d4f75025a99"><rect height="46" width="100" y="0" x="0" class="er entityBox"/><text style="dominant-baseline: middle; text-anchor: middle; font-size: 12px;" transform="translate(50,12)" y="0" x="0" id="text-entity-Seat-03afb89a-02f8-512d-afc5-0d4f75025a99" class="er entityLabel">Seat</text><rect height="22" width="37.61418151855469" y="24" x="0" class="er attributeBoxOdd"/><text style="dominant-baseline: middle; font-size: 10.2px;" transform="translate(5,35)" y="0" x="0" id="text-entity-Seat-03afb89a-02f8-512d-afc5-0d4f75025a99-attr-1-type" class="er entityLabel">String</text><rect height="22" width="38.152069091796875" y="24" x="37.61418151855469" class="er attributeBoxOdd"/><text style="dominant-baseline: middle; font-size: 10.2px;" transform="translate(42.61418151855469,35)" y="0" x="0" id="text-entity-Seat-03afb89a-02f8-512d-afc5-0d4f75025a99-attr-1-name" class="er entityLabel">seatId</text><rect height="22" width="24.233749389648438" y="24" x="75.76625061035156" class="er attributeBoxOdd"/><text style="dominant-baseline: middle; font-size: 10.2px;" transform="translate(80.76625061035156,35)" y="0" x="0" id="text-entity-Seat-03afb89a-02f8-512d-afc5-0d4f75025a99-attr-1-comment" class="er entityLabel">🗝️</text></g><rect height="14" width="46.619140625" y="242.1463165283203" x="39.210140228271484" class="er relationshipLabelBox"/><text style="text-anchor: middle; dominant-baseline: middle; font-size: 12px;" y="249.1463165283203" x="62.519710540771484" id="rel1" class="er relationshipLabel">bookings</text><rect height="14" width="27.46484375" y="379.4913024902344" x="-97.30711364746094" class="er relationshipLabelBox"/><text style="text-anchor: middle; dominant-baseline: middle; font-size: 12px;" y="386.4913024902344" x="-83.57469177246094" id="rel2" class="er relationshipLabel">seats</text><rect height="14" width="45.822265625" y="242.14630126953125" x="124.6273193359375" class="er relationshipLabelBox"/><text style="text-anchor: middle; dominant-baseline: middle; font-size: 12px;" y="249.14630126953125" x="147.5384521484375" id="rel3" class="er relationshipLabel">vechicle</text><rect height="14" width="27.46484375" y="439.4992370605469" x="108.08902740478516" class="er relationshipLabelBox"/><text style="text-anchor: middle; dominant-baseline: middle; font-size: 12px;" y="446.4992370605469" x="121.82144927978516" id="rel4" class="er relationshipLabel">seats</text><rect height="14" width="45.822265625" y="310.1076965332031" x="274.249755859375" class="er relationshipLabelBox"/><text style="text-anchor: middle; dominant-baseline: middle; font-size: 12px;" y="317.1076965332031" x="297.160888671875" id="rel5" class="er relationshipLabel">vechicle</text><rect height="14" width="41.625" y="412.61322021484375" x="298.89678955078125" class="er relationshipLabelBox"/><text style="text-anchor: middle; dominant-baseline: middle; font-size: 12px;" y="419.61322021484375" x="319.70928955078125" id="rel6" class="er relationshipLabel">booking</text></svg>